<svg width="494" height="494" viewBox="0 0 494 494" fill="none" xmlns="http://www.w3.org/2000/svg">
<g clip-path="url(#clip0_2_7747)">
<g style="mix-blend-mode:hard-light">
<path d="M246.624 0.187546L246.623 0.187544C235.216 0.140599 224.034 0.426758 212.747 1.96221C212.746 1.96232 212.745 1.96242 212.744 1.96252L209.072 2.49488L209.071 2.49503C187.069 5.63524 165.547 12.1991 145.347 21.4584C145.347 21.4586 145.347 21.4588 145.346 21.459L143.211 22.4533L143.211 22.4534C122.674 32.0103 103.212 43.957 86.1577 58.8878C86.1577 58.8879 86.1576 58.8879 86.1576 58.888L83.3304 61.3754L83.3209 61.3837L83.3208 61.3836C77.9894 65.8418 73.2615 70.5045 68.6605 75.7289C67.1605 77.4366 65.646 79.1319 64.116 80.8131L64.1155 80.8137C33.27 114.61 12.5188 155.376 3.97937 200.467C3.97929 200.468 3.97922 200.468 3.97914 200.469L3.49166 203.091L3.49062 203.097C0.739755 217.015 0.239112 230.819 0.193104 245.01C0.193103 245.01 0.193103 245.01 0.193103 245.01L0.187581 247.876L0.187579 247.877C-0.0136156 298.074 14.736 347.78 44.0593 388.847C44.0597 388.847 44.06 388.848 44.0603 388.848L45.4052 390.707L45.0001 391L45.4052 390.707C54.3679 403.101 63.8651 415.236 75.387 425.307C77.6047 427.149 79.7359 429.011 81.8294 431.005L81.4845 431.367L81.8294 431.005C114.053 461.715 155.74 481.057 199.115 489.924C199.116 489.924 199.117 489.924 199.118 489.924L202.096 490.509L202.097 490.51C210.86 492.238 215.21 493.096 222.034 493.497C228.876 493.899 238.2 493.841 256.898 493.725L259.555 493.703L259.556 493.703C296.452 493.505 334.835 482.092 366.719 463.745L246.624 0.187546ZM246.624 0.187546L249.418 0.193068C249.418 0.193069 249.418 0.193069 249.418 0.19307C263.465 0.23975 277.123 0.784521 290.904 3.4907L290.909 3.49166L293.536 3.97911C293.536 3.97917 293.537 3.97924 293.537 3.9793C337.277 12.2644 379.817 32.1604 412.171 62.9948C414.264 64.9895 416.395 66.8508 418.613 68.6928C462.465 106.906 488.059 167.032 493.502 224.04C493.984 231.555 493.988 239.076 493.938 246.622V246.623L493.927 249.646C493.598 317.183 465.933 378.629 418.25 426.055C403.449 440.454 386.676 452.344 368.752 462.566L368.749 462.568L366.72 463.744L246.624 0.187546Z" fill="url(#paint0_linear_2_7747)"/>
<path d="M246.624 0.187546L246.623 0.187544C235.216 0.140599 224.034 0.426758 212.747 1.96221C212.746 1.96232 212.745 1.96242 212.744 1.96252L209.072 2.49488L209.071 2.49503C187.069 5.63524 165.547 12.1991 145.347 21.4584C145.347 21.4586 145.347 21.4588 145.346 21.459L143.211 22.4533L143.211 22.4534C122.674 32.0103 103.212 43.957 86.1577 58.8878C86.1577 58.8879 86.1576 58.8879 86.1576 58.888L83.3304 61.3754L83.3209 61.3837L83.3208 61.3836C77.9894 65.8418 73.2615 70.5045 68.6605 75.7289C67.1605 77.4366 65.646 79.1319 64.116 80.8131L64.1155 80.8137C33.27 114.61 12.5188 155.376 3.97937 200.467C3.97929 200.468 3.97922 200.468 3.97914 200.469L3.49166 203.091L3.49062 203.097C0.739755 217.015 0.239112 230.819 0.193104 245.01C0.193103 245.01 0.193103 245.01 0.193103 245.01L0.187581 247.876L0.187579 247.877C-0.0136156 298.074 14.736 347.78 44.0593 388.847C44.0597 388.847 44.06 388.848 44.0603 388.848L45.4052 390.707L45.0001 391L45.4052 390.707C54.3679 403.101 63.8651 415.236 75.387 425.307C77.6047 427.149 79.7359 429.011 81.8294 431.005L81.4845 431.367L81.8294 431.005C114.053 461.715 155.74 481.057 199.115 489.924C199.116 489.924 199.117 489.924 199.118 489.924L202.096 490.509L202.097 490.51C210.86 492.238 215.21 493.096 222.034 493.497C228.876 493.899 238.2 493.841 256.898 493.725L259.555 493.703L259.556 493.703C296.452 493.505 334.835 482.092 366.719 463.745L246.624 0.187546ZM246.624 0.187546L249.418 0.193068C249.418 0.193069 249.418 0.193069 249.418 0.19307C263.465 0.23975 277.123 0.784521 290.904 3.4907L290.909 3.49166L293.536 3.97911C293.536 3.97917 293.537 3.97924 293.537 3.9793C337.277 12.2644 379.817 32.1604 412.171 62.9948C414.264 64.9895 416.395 66.8508 418.613 68.6928C462.465 106.906 488.059 167.032 493.502 224.04C493.984 231.555 493.988 239.076 493.938 246.622V246.623L493.927 249.646C493.598 317.183 465.933 378.629 418.25 426.055C403.449 440.454 386.676 452.344 368.752 462.566L368.749 462.568L366.72 463.744L246.624 0.187546Z" stroke="url(#paint1_linear_2_7747)"/>
</g>
<g filter="url(#filter0_d_2_7747)">
<path d="M290 88.9999C296.547 93.1394 301.56 98.5573 306.641 104.352C310.359 108.525 313.648 112.11 318.688 114.625C321.938 116.253 322.907 116.86 325 120C326.55 129.471 320.608 136.402 315.309 143.777C313.955 145.653 312.594 147.52 311.202 149.368C308.573 152.8 308.573 152.8 308 157C313.46 158.82 319.49 158.377 325 157C324.128 162.07 321.019 164.106 317 167C314.058 168.786 311.063 170.431 308 172C308.33 172.99 308.66 173.98 309 175C314.487 177.178 319.594 177.247 325.438 177.125C326.264 177.116 327.091 177.107 327.943 177.098C329.962 177.074 331.981 177.038 334 177C331.847 182.192 327.817 184.414 323 187C319.712 188.227 316.413 189.188 313 190C314.384 194.624 316.341 198.683 318.688 202.875C323.83 212.273 328.069 222.038 332 232C332.66 232 333.32 232 334 232C336.427 227.493 338.366 223.125 339.938 218.25C350.622 185.289 350.622 185.289 362 179C370.647 175.411 379.53 176.941 388.5 178.375C389.302 178.501 390.104 178.627 390.931 178.757C396.754 179.754 396.754 179.754 399 182C398.851 186.021 398.654 188.267 395.938 191.312C395.298 191.869 394.659 192.426 394 193C394 193.66 394 194.32 394 195C395.052 194.83 395.052 194.83 396.125 194.656C399.593 194.468 401.772 194.662 405 196C408.113 200.28 410.037 204.883 412.048 209.758C413.534 213.257 415.269 216.618 417 220C417.668 221.333 418.335 222.666 419 224C419.33 224.66 419.66 225.32 420 226C423 232 423 232 423.943 233.887C424.611 235.222 425.279 236.558 425.947 237.893C427.541 241.079 429.132 244.266 430.719 247.455C434.202 254.449 437.722 261.423 441.29 268.374C443.346 272.385 445.389 276.402 447.43 280.421C448.486 282.491 449.546 284.558 450.613 286.622C452.174 289.647 453.714 292.681 455.25 295.719C455.728 296.633 456.206 297.548 456.699 298.491C459.451 303.991 460.637 307.842 460 314C458.898 316.863 458.898 316.863 457.375 319.312C456.888 320.134 456.4 320.955 455.898 321.801C452.672 325.538 449.46 326.86 444.582 327.328C443.338 327.302 442.094 327.277 440.813 327.25C439.762 327.234 439.762 327.234 438.691 327.217C434.393 327.129 430.109 326.901 425.819 326.635C404.952 325.353 383.615 324.546 362.988 328.332C357.977 329.244 353.074 329.244 348 329C347.92 313.41 348.172 297.836 348.5 282.25C348.548 279.884 348.597 277.518 348.645 275.152C348.761 269.435 348.88 263.717 349 258C348.276 258.505 347.551 259.011 346.805 259.531C345.355 260.506 345.355 260.506 343.875 261.5C342.924 262.15 341.972 262.799 340.992 263.469C337.623 265.193 335.732 265.456 332 265C326.707 262.66 323.31 258.244 320.313 253.437C319.899 252.797 319.485 252.156 319.059 251.496C315.039 245.211 311.228 238.794 307.418 232.38C303.115 225.14 298.617 218.043 294 211C281.456 216.316 271.107 235.864 266 248C265.609 248.919 265.219 249.838 264.816 250.785C260.92 261.019 260.343 270.666 264.25 281C268.82 290.589 276.077 297.867 283.316 305.5C298.167 321.181 309.183 335.539 309.24 357.886C309.25 360.162 309.281 362.437 309.313 364.713C309.429 379.515 309.429 379.515 306 385C302.844 386.414 302.844 386.414 299 387C298.348 387.116 297.695 387.231 297.023 387.351C294.854 387.731 292.68 388.056 290.5 388.375C282.097 389.65 273.725 391.067 265.357 392.554C263.525 392.878 261.691 393.196 259.857 393.509C257.904 393.845 255.954 394.194 254.006 394.555C245.762 395.987 237.66 396.341 229.317 396.316C227.134 396.312 224.952 396.336 222.77 396.361C208.287 396.428 195.715 394.316 183 387C183 383 183 383 185.527 380.258C186.659 379.208 187.796 378.164 188.938 377.125C205.853 360.928 214.513 339.161 215.195 315.844C215.427 301.577 214.362 288.578 209.219 275.156C205.542 263.963 205.63 251.792 205.375 240.125C205.337 238.647 205.298 237.169 205.258 235.691C205.163 232.128 205.079 228.564 205 225C204.152 225.92 203.304 226.841 202.43 227.789C169.93 262.922 169.93 262.922 153.648 263.691C150.6 262.896 148.987 261.752 147.094 259.227C144.537 254.021 144.114 248.063 143.313 242.375C143.113 241.072 142.914 239.768 142.709 238.426C142.316 235.848 141.928 233.269 141.547 230.689C141.033 227.224 140.504 223.763 139.949 220.305C139.802 219.379 139.655 218.453 139.503 217.499C137.683 208.451 132.3 204.238 125 199C123.177 205.154 122.764 210.596 123 217C126.642 217.097 128.834 216.876 132 215C134.713 219.834 135.907 224.315 136.938 229.687C137.277 231.38 137.617 233.073 137.957 234.766C138.128 235.63 138.299 236.494 138.475 237.385C138.989 239.943 139.526 242.495 140.074 245.047C140.338 246.277 140.338 246.277 140.608 247.532C140.939 249.073 141.271 250.613 141.605 252.153C142.499 256.354 143.273 260.558 143.965 264.797C144.979 271 146.187 277.153 147.438 283.312C147.765 284.947 147.765 284.947 148.098 286.614C149.032 291.272 149.974 295.926 150.992 300.566C154.296 315.904 154.296 315.904 153 322C148.682 327.055 142.56 329.967 135.941 330.504C134.482 330.548 133.022 330.567 131.563 330.562C130.396 330.562 130.396 330.562 129.206 330.562C119.637 330.285 111.34 326.723 102.899 322.418C98.3394 320.481 93.9568 320.631 89.0704 320.699C87.1198 320.692 85.1693 320.683 83.2188 320.674C80.187 320.676 77.1558 320.687 74.1241 320.715C59.3871 320.82 43.5308 320.557 32 310C29.0724 304.145 31.3019 297.088 33.2351 291.249C33.5494 290.342 33.8637 289.435 34.1875 288.5C34.835 286.555 35.4808 284.61 36.125 282.664C36.4447 281.708 36.7644 280.752 37.0938 279.767C38.3838 275.828 39.545 271.858 40.6875 267.875C42.3156 262.244 44.0868 256.681 45.9766 251.133C47.195 247.403 48.2868 243.644 49.375 239.875C51.1818 233.65 53.095 227.468 55.125 221.312C55.3666 220.57 55.6081 219.828 55.857 219.064C59.9912 206.672 59.9912 206.672 64 204C70.0532 203.104 73.8294 205.844 78.75 208.937C80.2656 209.863 81.7812 210.789 83.2969 211.715C83.9605 212.128 84.624 212.542 85.3077 212.968C88.7578 215.071 90.9213 215.471 95 215C97.8148 212.972 97.8148 212.972 99.4922 211.359C101 210 101 210 104.125 208C107.147 205.898 109.083 204.144 111 201C110.841 197.577 110.437 196.437 108 194C108.143 190.205 108.767 187.477 110.438 184.062C114.431 180.848 118.067 181.599 123 182C123.941 182.033 124.882 182.067 125.852 182.102C131.65 182.405 136.451 183.083 141 187C143.396 190.271 145.224 193.767 147.063 197.375C147.581 198.361 148.099 199.346 148.632 200.362C153.921 210.541 159.035 220.603 161 232C166.047 229.559 168.571 225.998 171.75 221.562C172.818 220.105 173.885 218.648 174.953 217.191C175.473 216.475 175.993 215.758 176.529 215.02C178.491 212.325 180.494 209.662 182.5 207C183.199 206.062 183.897 205.123 184.617 204.156C186.474 201.697 188.355 199.267 190.258 196.844C190.815 196.124 191.373 195.405 191.947 194.664C193.048 193.245 194.158 191.833 195.279 190.43C195.778 189.783 196.276 189.135 196.789 188.469C197.465 187.609 197.465 187.609 198.155 186.732C199.189 185.015 199.189 185.015 198.74 182.99C197.334 179.208 195.339 175.686 193.439 172.133C191.677 168.732 191 166.923 191 163C195.262 163.473 197.15 166 200 169C202.926 170.463 204.756 170.445 208 170C210.368 167.419 210.368 167.419 211.531 165.508C214.463 162.498 218.12 162.017 222.184 161.937C223.257 161.958 224.331 161.979 225.438 162C229.454 161.761 231.35 161.572 234.398 158.891C237.54 154.556 239.422 151.457 239 146C238.108 145.89 237.216 145.781 236.297 145.668C234.541 145.43 234.541 145.43 232.75 145.187C231.59 145.037 230.43 144.886 229.234 144.73C225.992 143.998 224.311 143.363 222 141C222 140.01 222 139.02 222 138C222.713 138.032 223.426 138.064 224.16 138.098C228.416 138.046 231.732 137.978 235.184 135.316C239.81 129.735 241.522 123.977 243 117C243.464 114.936 243.941 112.875 244.431 110.817C244.76 109.433 245.077 108.047 245.38 106.658C247.23 98.7808 250.9 94.5326 257.582 90.3906C258.38 89.9317 259.178 89.4728 260 88.9999C260.726 88.5823 261.452 88.1646 262.199 87.7343C271.576 82.9534 280.926 84.0344 290 88.9999Z" fill="#FDFDFD"/>
</g>
</g>
<defs>
<filter id="filter0_d_2_7747" x="30.5874" y="84.6597" width="443.581" height="331.703" filterUnits="userSpaceOnUse" color-interpolation-filters="sRGB">
<feFlood flood-opacity="0" result="BackgroundImageFix"/>
<feColorMatrix in="SourceAlpha" type="matrix" values="0 0 0 0 0 0 0 0 0 0 0 0 0 0 0 0 0 0 127 0" result="hardAlpha"/>
<feOffset dx="10" dy="16"/>
<feGaussianBlur stdDeviation="2"/>
<feComposite in2="hardAlpha" operator="out"/>
<feColorMatrix type="matrix" values="0 0 0 0 0 0 0 0 0 0 0 0 0 0 0 0 0 0 0.5 0"/>
<feBlend mode="normal" in2="BackgroundImageFix" result="effect1_dropShadow_2_7747"/>
<feBlend mode="normal" in="SourceGraphic" in2="effect1_dropShadow_2_7747" result="shape"/>
</filter>
<linearGradient id="paint0_linear_2_7747" x1="81.5" y1="3.87098e-06" x2="247.072" y2="494.31" gradientUnits="userSpaceOnUse">
<stop offset="0.0118784" stop-color="#FF8383"/>
<stop offset="1" stop-color="#BFA9FF"/>
</linearGradient>
<linearGradient id="paint1_linear_2_7747" x1="247.072" y1="-0.317139" x2="247.072" y2="494.31" gradientUnits="userSpaceOnUse">
<stop stop-color="#EF5DA8"/>
<stop offset="1" stop-color="#4200FF"/>
</linearGradient>
<clipPath id="clip0_2_7747">
<rect width="494" height="494" fill="white"/>
</clipPath>
</defs>
</svg>
